<svg xmlns="http://www.w3.org/2000/svg" xlink="http://www.w3.org/1999/xlink" width="300" viewBox="0 0 575.392 97.817" preserveAspectRatio="none">
  <defs>
    <linearGradient id="linear-gradient" x1="0.977" y1="0.814" x2="0.035" y2="0.614" gradientUnits="objectBoundingBox">
      <stop offset="0" stop-color="#bffbdf"/>
      <stop offset="1" stop-color="#7ff88f"/>
    </linearGradient>
  </defs>
  <g id="Group_23" data-name="Group 23" transform="translate(-140 -228.77)">
    <path id="Path_10" data-name="Path 10" d="M80.981,50.307H65.647L34.405-15.5q-.383-.831-1.31-3.194a21.969,21.969,0,0,1-1.118-3.386h-.383l-.575,4.345-.767,4.664L16.771,50.307H1.757L21.116-41.312H37.791l30.6,65.487A46.528,46.528,0,0,1,70.5,29.542h.256a60.024,60.024,0,0,1,1.214-8.5L85.261-41.312H100.4ZM163.4.984q0,11.82-10.989,17.41t-33.351,5.846l-.128.7V26.22q0,6.645,3.961,10.318t11.053,3.674a34.345,34.345,0,0,0,10.382-1.757,48.075,48.075,0,0,0,10.127-4.5L151.9,46.665A43.854,43.854,0,0,1,130.623,51.9q-12.714,0-19.838-7.092t-7.124-20a45.736,45.736,0,0,1,4.856-20.8,37.559,37.559,0,0,1,13.545-15.206A34.777,34.777,0,0,1,141.1-16.714q10.286,0,16.292,4.856A15.7,15.7,0,0,1,163.4.984Zm-14.95.383a6.19,6.19,0,0,0-2.332-5.079A9.941,9.941,0,0,0,139.7-5.6q-6.772,0-12.267,5.558a26.965,26.965,0,0,0-7.22,13.672Q148.448,13.634,148.448,1.367Zm59.418,16.547,14.822,32.392H205.694l-7.028-18.72-2.044-6.2H196.3q-1.342,2.044-2.524,3.738T177.135,50.307H159.054l29.262-32.839L174-15.117H191l6.645,19.039a53.4,53.4,0,0,1,1.853,6.517h.256q.894-1.342,2.108-3.067t17.506-22.489h17.442Zm69.7-21.148H261.661L255.4,26.348a46.092,46.092,0,0,0-1.15,7.475,5.743,5.743,0,0,0,1.342,4.249q1.342,1.31,4.408,1.31,2.939,0,8.945-2.3l-2.556,12.075a34.63,34.63,0,0,1-12.65,2.492q-15.142,0-15.142-14.759a46.761,46.761,0,0,1,1.342-9.711l6.389-30.412H235.85l2.811-11.884h10.158l3.386-15.653,16.228-4.281-4.153,19.934h16.036Z" transform="translate(138.242 272.949)" fill="url(#linear-gradient)"/>
    <path id="Path_12" data-name="Path 12" d="M71.475-71.348a27.475,27.475,0,0,1-1.206,8.157,21.6,21.6,0,0,1-3.713,7.078,23.023,23.023,0,0,1-6.411,5.491,28.382,28.382,0,0,1-9.3,3.333v.254a20.338,20.338,0,0,1,6.887,2.317,17.345,17.345,0,0,1,4.919,4.094A16.7,16.7,0,0,1,65.6-35.2a20.645,20.645,0,0,1,.984,6.443,28.4,28.4,0,0,1-2.571,12.41,25.16,25.16,0,0,1-7.141,8.982A32.035,32.035,0,0,1,46.052-1.873,47.044,47.044,0,0,1,32.5,0H4.7L23.931-91.025H49A28.155,28.155,0,0,1,58.652-89.5,20.384,20.384,0,0,1,65.7-85.312a17.47,17.47,0,0,1,4.316,6.252A20.258,20.258,0,0,1,71.475-71.348ZM60.3-69.316a13.631,13.631,0,0,0-.762-4.57,10.166,10.166,0,0,0-2.444-3.84,11.8,11.8,0,0,0-4.38-2.666,19.271,19.271,0,0,0-6.57-.984H32.881l-6.348,29.39H38.467a32.346,32.346,0,0,0,9.553-1.27,19.136,19.136,0,0,0,6.792-3.555,14.364,14.364,0,0,0,4.031-5.459,18.024,18.024,0,0,0,1.333-7.046Zm-4.951,41.26a12.915,12.915,0,0,0-4.634-10.505Q46.084-42.4,36.5-42.4H24.438L17.71-9.648H32.373a35.864,35.864,0,0,0,10.283-1.3A19.514,19.514,0,0,0,49.8-14.663a14.792,14.792,0,0,0,4.189-5.808A20.18,20.18,0,0,0,55.352-28.057Zm83.789-12.886A54.1,54.1,0,0,1,136.7-24.565a41.872,41.872,0,0,1-7.046,13.552,34.044,34.044,0,0,1-11.172,9.2,31.8,31.8,0,0,1-14.822,3.4A27.059,27.059,0,0,1,93.6-.19,20.931,20.931,0,0,1,85.979-5.3a22.637,22.637,0,0,1-4.824-8.062,31.785,31.785,0,0,1-1.682-10.7,52.967,52.967,0,0,1,2.571-16.726A42.237,42.237,0,0,1,89.28-54.3a33.808,33.808,0,0,1,11.172-9.014,31.567,31.567,0,0,1,14.377-3.269,26.877,26.877,0,0,1,10,1.777,21.236,21.236,0,0,1,7.649,5.11,23.14,23.14,0,0,1,4.919,8.062A30.734,30.734,0,0,1,139.141-40.942Zm-10.664.508a24.267,24.267,0,0,0-1.016-7.332,15.6,15.6,0,0,0-2.856-5.4,12.392,12.392,0,0,0-4.443-3.364,14.045,14.045,0,0,0-5.84-1.174,18.46,18.46,0,0,0-10.093,2.856,25.539,25.539,0,0,0-7.617,7.522,37.3,37.3,0,0,0-4.792,10.6,44.364,44.364,0,0,0-1.682,12.156,24.279,24.279,0,0,0,.984,7.141,16.215,16.215,0,0,0,2.793,5.459,12.058,12.058,0,0,0,4.443,3.459A14.1,14.1,0,0,0,104.292-7.3a18.726,18.726,0,0,0,10.156-2.825,25.182,25.182,0,0,0,7.617-7.49,36.608,36.608,0,0,0,4.761-10.632A45.508,45.508,0,0,0,128.477-40.435Zm80.234-.508a54.1,54.1,0,0,1-2.444,16.377,41.872,41.872,0,0,1-7.046,13.552,34.044,34.044,0,0,1-11.172,9.2,31.8,31.8,0,0,1-14.822,3.4A27.059,27.059,0,0,1,163.167-.19a20.931,20.931,0,0,1-7.617-5.11,22.636,22.636,0,0,1-4.824-8.062,31.786,31.786,0,0,1-1.682-10.7,52.967,52.967,0,0,1,2.571-16.726A42.237,42.237,0,0,1,158.85-54.3a33.808,33.808,0,0,1,11.172-9.014A31.567,31.567,0,0,1,184.4-66.587a26.877,26.877,0,0,1,10,1.777,21.236,21.236,0,0,1,7.649,5.11,23.14,23.14,0,0,1,4.919,8.062A30.734,30.734,0,0,1,208.711-40.942Zm-10.664.508a24.267,24.267,0,0,0-1.016-7.332,15.6,15.6,0,0,0-2.856-5.4,12.392,12.392,0,0,0-4.443-3.364,14.045,14.045,0,0,0-5.84-1.174A18.46,18.46,0,0,0,173.8-54.844a25.539,25.539,0,0,0-7.617,7.522,37.3,37.3,0,0,0-4.792,10.6,44.365,44.365,0,0,0-1.682,12.156,24.279,24.279,0,0,0,.984,7.141,16.215,16.215,0,0,0,2.793,5.459,12.058,12.058,0,0,0,4.443,3.459A14.1,14.1,0,0,0,173.862-7.3a18.726,18.726,0,0,0,10.156-2.825,25.182,25.182,0,0,0,7.617-7.49A36.608,36.608,0,0,0,196.4-28.247,45.508,45.508,0,0,0,198.047-40.435Zm47.227,5.459L268.252,0H256.191L234.863-34.341h-.254L227.31,0H216.772l20.566-96.23h10.41l-12.5,58.779h.254L267.871-65h13.521Z" transform="translate(434 325)" fill="#bdfbdc"/>
  </g>
</svg>
